<svg width="21" height="21" viewBox="0 0 21 21" fill="none" xmlns="http://www.w3.org/2000/svg">
<path d="M5.89583 4C5.3 4 4.8125 4.4875 4.8125 5.08333V15.9167C4.8125 16.5125 5.3 17 5.89583 17H15.1042C15.7 17 16.1875 16.5125 16.1875 15.9167V5.08333C16.1875 4.4875 15.7 4 15.1042 4H5.89583ZM8.0625 15.375H6.4375V13.75H8.0625V15.375ZM8.0625 13.2083H6.4375V11.5833H8.0625V13.2083ZM8.0625 11.0417H6.4375V9.41667H8.0625V11.0417ZM10.2292 15.375H8.60417V13.75H10.2292V15.375ZM10.2292 13.2083H8.60417V11.5833H10.2292V13.2083ZM10.2292 11.0417H8.60417V9.41667H10.2292V11.0417ZM12.3958 15.375H10.7708V13.75H12.3958V15.375ZM12.3958 13.2083H10.7708V11.5833H12.3958V13.2083ZM12.3958 11.0417H10.7708V9.41667H12.3958V11.0417ZM14.5625 15.375H12.9375V11.5833H14.5625V15.375ZM14.5625 11.0417H12.9375V9.41667H14.5625V11.0417ZM14.5625 8.33333H6.4375V5.625H14.5625V8.33333Z" fill="#999999"/>
</svg>
