<svg width="23" height="22" viewBox="0 0 23 22" fill="none" xmlns="http://www.w3.org/2000/svg">
<path d="M5.8772 12.1353C5.69458 12.1353 5.5424 12.0744 5.42065 11.9526C5.29891 11.8254 5.23804 11.6704 5.23804 11.4878C5.23804 11.3107 5.29891 11.1613 5.42065 11.0396C5.5424 10.9123 5.69458 10.8486 5.8772 10.8486H10.9739V4.0835C10.9739 3.90641 11.0347 3.757 11.1565 3.63525C11.2838 3.50798 11.436 3.44434 11.613 3.44434C11.7957 3.44434 11.9478 3.50798 12.0696 3.63525C12.1969 3.757 12.2605 3.90641 12.2605 4.0835V11.4878C12.2605 11.6704 12.1969 11.8254 12.0696 11.9526C11.9478 12.0744 11.7957 12.1353 11.613 12.1353H5.8772ZM11.6213 21.8555C10.4316 21.8555 9.29435 21.6729 8.20972 21.3076C7.13062 20.9479 6.14006 20.436 5.23804 19.772C4.34155 19.1079 3.56128 18.3249 2.89722 17.4229C2.23315 16.5264 1.71851 15.5386 1.35327 14.4595C0.993571 13.3748 0.813721 12.2376 0.813721 11.0479C0.813721 9.85254 0.993571 8.71533 1.35327 7.63623C1.71851 6.55713 2.23315 5.56657 2.89722 4.66455C3.56128 3.76253 4.34155 2.98226 5.23804 2.32373C6.14006 1.65967 7.13062 1.14502 8.20972 0.779785C9.29435 0.414551 10.4316 0.231934 11.6213 0.231934C12.8167 0.231934 13.9539 0.414551 15.033 0.779785C16.1121 1.14502 17.1026 1.65967 18.0046 2.32373C18.9067 2.98226 19.6869 3.76253 20.3455 4.66455C21.0095 5.56657 21.5242 6.55713 21.8894 7.63623C22.2546 8.71533 22.4373 9.85254 22.4373 11.0479C22.4373 12.2376 22.2546 13.3748 21.8894 14.4595C21.5242 15.5386 21.0095 16.5264 20.3455 17.4229C19.6869 18.3249 18.9067 19.1079 18.0046 19.772C17.1026 20.436 16.1121 20.9479 15.033 21.3076C13.9539 21.6729 12.8167 21.8555 11.6213 21.8555ZM11.6213 20.3115C12.6451 20.3115 13.6191 20.1538 14.5432 19.8384C15.4729 19.5285 16.3223 19.0885 17.0916 18.5186C17.8663 17.9541 18.5359 17.2873 19.1003 16.5181C19.6703 15.7433 20.1103 14.8939 20.4202 13.9697C20.7301 13.0456 20.885 12.0716 20.885 11.0479C20.885 10.0241 20.7301 9.05013 20.4202 8.12598C20.1103 7.19629 19.6703 6.34684 19.1003 5.57764C18.5359 4.8029 17.8663 4.1333 17.0916 3.56885C16.3223 2.99886 15.4729 2.55892 14.5432 2.24902C13.6191 1.93913 12.6451 1.78418 11.6213 1.78418C10.5976 1.78418 9.62362 1.93913 8.69946 2.24902C7.77531 2.55892 6.92586 2.99886 6.15112 3.56885C5.38192 4.1333 4.71232 4.8029 4.14233 5.57764C3.57788 6.34684 3.13794 7.19629 2.82251 8.12598C2.51261 9.05013 2.35767 10.0241 2.35767 11.0479C2.35767 12.0716 2.51261 13.0456 2.82251 13.9697C3.13794 14.8939 3.57788 15.7433 4.14233 16.5181C4.71232 17.2873 5.38192 17.9541 6.15112 18.5186C6.92586 19.0885 7.77531 19.5285 8.69946 19.8384C9.62362 20.1538 10.5976 20.3115 11.6213 20.3115Z" fill="#6F5DB7"/>
</svg>
