<svg width="21" height="21" viewBox="0 0 21 21" fill="none" xmlns="http://www.w3.org/2000/svg">
<path d="M10.5 3L16.9773 6.75V14.25L10.5 18L4.02271 14.25V6.75L10.5 3ZM10.5 12.5455C11.0425 12.5455 11.5627 12.33 11.9463 11.9464C12.3299 11.5628 12.5454 11.0425 12.5454 10.5C12.5454 9.95751 12.3299 9.43724 11.9463 9.05365C11.5627 8.67005 11.0425 8.45455 10.5 8.45455C9.95749 8.45455 9.43722 8.67005 9.05362 9.05365C8.67003 9.43724 8.45452 9.95751 8.45452 10.5C8.45452 11.0425 8.67003 11.5628 9.05362 11.9464C9.43722 12.33 9.95749 12.5455 10.5 12.5455Z" fill="#999999"/>
</svg>
