<svg width="24" height="24" viewBox="0 0 24 24" fill="none" xmlns="http://www.w3.org/2000/svg">
<path d="M6.63477 23.4536C5.57227 23.4536 4.77262 23.1825 4.23584 22.6401C3.70459 22.1034 3.43896 21.2982 3.43896 20.2246V3.80566C3.43896 2.73763 3.70736 1.93245 4.24414 1.39014C4.78092 0.847819 5.5778 0.57666 6.63477 0.57666H11.7563C12.1216 0.57666 12.4398 0.601562 12.7109 0.651367C12.9876 0.701172 13.2422 0.79248 13.4746 0.925293C13.707 1.05811 13.945 1.24902 14.1885 1.49805L20.3394 7.73193C20.5939 7.99202 20.7876 8.23828 20.9204 8.4707C21.0532 8.70312 21.1418 8.96322 21.186 9.25098C21.2358 9.5332 21.2607 9.87907 21.2607 10.2886V20.2246C21.2607 21.2926 20.9924 22.0978 20.4556 22.6401C19.9243 23.1825 19.1274 23.4536 18.0649 23.4536H6.63477ZM6.70947 21.9844H17.9819C18.5796 21.9844 19.0306 21.8294 19.335 21.5195C19.6393 21.2152 19.7915 20.7725 19.7915 20.1914V10.2886H13.5161C12.8963 10.2886 12.4259 10.1336 12.105 9.82373C11.7896 9.51383 11.6318 9.04069 11.6318 8.4043V2.0459H6.71777C6.12012 2.0459 5.66911 2.20361 5.36475 2.51904C5.06038 2.82894 4.9082 3.26888 4.9082 3.83887V20.1914C4.9082 20.7725 5.06038 21.2152 5.36475 21.5195C5.66911 21.8294 6.11735 21.9844 6.70947 21.9844ZM13.6738 8.90234H19.501L13.0181 2.33643V8.24658C13.0181 8.479 13.0679 8.64779 13.1675 8.75293C13.2726 8.85254 13.4414 8.90234 13.6738 8.90234Z" fill="#6F5DB7"/>
</svg>
